<svg xmlns="http://www.w3.org/2000/svg" viewBox="0 0 36 36">
<path fill="#DD4545" d="M18,27.6c-0.7,0-1.3-0.2-1.7-0.7c-0.5-0.4-0.7-1-0.7-1.6c0-1.2,0.3-2.5,1-3.9c0.6-1.4,1.6-2.6,3-3.7
	c0.9-0.7,1.7-1.4,2.5-2.1s1.4-1.5,1.8-2.4c0.5-0.9,0.7-2,0.7-3.4c0-1-0.2-1.9-0.7-2.7c-0.5-0.8-1.2-1.5-2-2.1
	c-0.9-0.5-2-0.8-3.2-0.8c-1.6,0-2.9,0.3-3.9,0.8c-1,0.5-1.8,1.3-2.3,2.3c-0.5,1-0.7,2.1-0.7,3.4c0,0.7-0.2,1.2-0.7,1.6
	c-0.4,0.4-1,0.7-1.8,0.7c-0.7,0-1.3-0.2-1.7-0.7c-0.5-0.4-0.7-1-0.7-1.6c0-2.1,0.5-4,1.5-5.6c1-1.6,2.3-2.9,4.1-3.8
	C14.1,0.5,16.1,0,18.5,0c2.1,0,3.9,0.4,5.5,1.2c1.6,0.8,2.9,2,3.8,3.4c0.9,1.5,1.4,3.2,1.4,5.1c0,1.7-0.3,3.1-0.9,4.4
	s-1.4,2.3-2.3,3.3c-1,1-2.1,2-3.4,2.9c-0.8,0.6-1.4,1.5-1.7,2.5c-0.3,1-0.5,1.8-0.5,2.5c0,0.7-0.2,1.2-0.7,1.6
	C19.3,27.4,18.8,27.6,18,27.6z M18,36c-0.9,0-1.7-0.3-2.3-0.9c-0.7-0.6-1-1.3-1-2.2c0-0.9,0.3-1.6,1-2.2c0.7-0.6,1.4-0.9,2.3-0.9
	c0.9,0,1.7,0.3,2.4,0.9s1,1.4,1,2.2c0,0.8-0.3,1.6-1,2.2C19.7,35.7,18.9,36,18,36z"/>
</svg>
