<?xml version="1.0" encoding="utf-8"?><svg width="256" height="256" viewBox="0 0 256 256" xmlns="http://www.w3.org/2000/svg" xmlns:xlink="http://www.w3.org/1999/xlink"><view id="emoji_u1f38c" viewBox="0 0 128 128"/><svg viewBox="0 0 128 128" width="128" height="128" xmlns="http://www.w3.org/2000/svg"><path d="M49.65 13.04c-.37-1.01-1.99-2.13-3.74-.98-1.36.9-1.28 2.51-.95 3.57s34.82 99.92 35.06 100.4c.24.48 1.62 1.5 3.06.96s2.22-1.98 2.04-2.7c-.17-.72-34.99-99.94-35.47-101.25z" fill="#aeb0b0"/><path d="M81.66 115.48c-.41 0-.8-.26-.94-.67L45.67 14.44a.996.996 0 111.88-.66L82.6 114.15a.996.996 0 01-.61 1.27.96.96 0 01-.33.06z" fill="#c8c8c8"/><path d="M81.55 15.23c.4-.98.5-2.69-1.57-3.49-2.07-.8-3.19.26-3.46 1-.27.73-34.75 99.52-35.12 100.58-.37 1.06.1 3.07 1.71 3.53 1.61.46 3.14-.24 3.38-.84.54-1.37 34.78-100.1 35.06-100.78z" fill="#aeb0b0"/><path d="M43.66 114.44a.96.96 0 01-.33-.06.988.988 0 01-.61-1.27l34.81-99.57c.18-.52.75-.8 1.27-.61s.8.75.61 1.27L44.6 113.77c-.14.42-.52.67-.94.67z" fill="#c8c8c8"/><path d="M68.54 52.52s6.77-.32 14.14 5.74c6.25 5.14 12.13 10.38 16.84 12.09 4.71 1.7 8.3 1.82 9.05 1.27s1-2.72.85-3.02-26.79-22.05-26.79-22.05l-12.99 2.91-1.1 3.06zM58.01 53.04s-7.63-.48-14.14 2.18c-7.83 3.19-11.08 8.12-17.05 11.68-5.22 3.12-10.05 3.64-10.98 3.41-.6-.15-1.14-1.04-1.25-1.61-.31-1.52 24.52-19.3 24.52-19.3l17.57-.19 1.33 3.83z" fill="#9a9a9a"/><path d="M69.49 49.81l12.23-35.1s7.82-1.7 17.45 4.81c6.86 4.64 8.72 8.12 13.64 10.78 5.4 2.92 10.98 2.96 11.68 3.96.55.78-3.06 6.72-6.87 15.59-3.71 8.65-8.37 20.51-8.37 20.51s-4.85-.07-9.33-2.26c-9.53-4.66-14.24-11.83-21.06-15.44-5.99-3.16-9.37-2.85-9.37-2.85zM57.1 50.4l-12.19-35s-5.5-2.14-13.48.72-11.28 7.47-17 10.08S3.4 29.55 3.3 30.45c-.1.9 1.02 3.86 2.47 8.07s3.9 14.98 5.05 19.56c1.51 6.01 3.76 10.63 3.76 10.63s5.52-.2 10.13-3.11 11.07-9.87 17.2-12.34c7.97-3.2 15.19-2.86 15.19-2.86z" fill="#dadada"/><path d="M7.47 32.17c-.16.33 3.8 11.84 4.78 16.64 1.99 9.72 4.59 16.57 4.59 16.57s4.84-.89 8.39-3.59c4.27-3.24 10.39-8.74 16.05-11.25 6.91-3.05 12.79-3.1 12.79-3.1L43.62 17.53s-5.96-1.69-12.29 1.62-9.64 6.62-14.43 8.98c-5.32 2.61-9.28 3.75-9.43 4.04zM82.92 17.82c-.15.29-10.45 29.3-10.38 29.66.07.37 6.48.81 12.22 5.59 5.68 4.73 10.67 9.94 14.72 11.85 4.05 1.91 7.21 2.13 7.21 2.13s4.61-9.75 6.77-15.31c2.58-6.62 6.92-15.24 6.99-15.6.07-.37-6.84-1.45-11.04-4.56-4.56-3.39-6.04-6.85-14.13-11.11-8.44-4.45-12.36-2.65-12.36-2.65z" fill="#fefefe"/><path d="M101.91 31.22c-5.46-3.51-13.25-2.06-15.6 4.27s.15 12.29 5.89 15.53c5.74 3.24 14.47.65 15.46-7.14.66-5.23-.82-9.5-5.75-12.66zM25.88 29.01c-8.17 3.68-7.02 12.19-5.37 15.68 1.91 4.05 6.74 7.77 15.02 4.56 8.54-3.31 8.07-11.25 6.11-15.16-2.37-4.71-7.66-8.73-15.76-5.08z" fill="#db0d27"/></svg><view id="emoji_u1f3c1" viewBox="128 0 128 128"/><svg viewBox="0 0 128 128" width="128" height="128" x="128" xmlns="http://www.w3.org/2000/svg"><path d="M13.56 15.85c-.18-1.27-.39-6.82-5.23-6.33-4.05.41-3.83 4.76-3.44 6.78.22 1.15 13.22 104.18 13.39 105.28.23 1.47 2.28 3 4.62 2.76 2.34-.23 3.71-2.05 3.66-3.78-.03-1.32-12.77-102.98-13-104.71z" fill="#b0b0b0"/><path d="M21.41 116.33c-.62 0-1.16-.46-1.24-1.09L7.07 14.12a1.25 1.25 0 012.48-.32l13.1 101.12c.09.68-.39 1.31-1.08 1.4-.05 0-.1.01-.16.01z" fill="#c8c8c8"/><path d="M16.01 14.19l-2.45 1.66s7.97 70.36 8.27 70.46c.3.1 17.44-12.91 32.12-13.01 13.57-.09 17.47 6.14 38.07 6.89 11.55.42 23.91-7.28 23.91-7.28L16.01 14.19z" fill="#9b9b9b"/><path d="M16.01 18.13l-.46-3.64s10.08-8.14 22.74-7.45S63.8 19.12 81.75 17.19c10.61-1.14 16.54-6.16 16.54-6.16l12.79 4.59 9.46 39.21-10.27 9.81S32.58 37.49 31.9 36.69c-.68-.79-15.89-18.56-15.89-18.56z" fill="#dacec9"/><path fill="#2f2f2f" d="M17.9 27.78l-2.75 2.18 1.49 12.88L20 40.03zM20.45 54.48l-2.29 1.63 1.66 14.19 3.84-2.32zM37.55 73.79c.06.43.45 3.45.45 3.45s6.18-2.78 11.53-3.43c4.38-.54 7.63-.4 7.63-.4l-.44-2.97-11.31-.78-7.86 4.13zM74.22 74.39l.56 3.34s2.56.81 7.2 1.56c5.83.95 9.48.96 9.99.94l-.56-4.85-10.37-2.76-6.82 1.77zM107.76 73.62l.51 3.12s4.02-1.36 8.93-4.24c3.72-2.19 6.32-4.15 6.35-4.41.03-.26-.58-2.92-.71-3.34-.13-.42-1.22-1.35-1.22-1.35l-13.86 10.22z"/><path d="M23.69 81.19l-7.68-63.06s9.51-9.49 23.2-7.67 29.1 11.31 42.56 9.49c13.46-1.83 23.49-9.6 23.49-9.6l2.28 2.4 11.18 46.2-10.95 14.69s-7.64 3.56-18.02 2.99c-21.71-1.19-23.81-7.74-40.4-5.94-4.4.48-8.65 1.84-12.4 3.36-7.72 3.12-13.26 7.14-13.26 7.14z" fill="#f1edec"/><path d="M28.24 8.23l1.72 13.56s-4.41 1.31-7.76 3.07c-2.54 1.33-4.97 3.45-4.97 3.45l1.58 12.72s2.98-2.11 6.56-3.75c2.4-1.1 5.91-2.04 5.91-2.04l2.07 12.99s-4.69 1.61-7.34 3.02-5.55 3.22-5.55 3.22l1.74 14.4s4.09-2.45 5.99-3.39c3.12-1.54 7.68-3.28 7.68-3.28l1.7 11.59s5.94-2.14 9.88-2.76c5.35-.83 9.3-.61 9.3-.61l-1.62-10.74s3.78-.22 8.36.79c4.17.92 8.62 1.96 8.62 1.96l2.14 11.94s2.83.91 8.06 1.67c5.24.76 9.28.64 9.28.64L90 64.89s4.12-.28 7.85-.85c3.73-.56 7.74-1.94 7.74-1.94l2.17 11.54s4.29-1.92 7.95-4.12c4.43-2.66 7.13-4.82 7.13-4.82l-2.3-9.87s-4.16 2.33-6.84 3.69c-3.48 1.75-7.83 3.24-7.83 3.24l-2.31-12.51s4.4-1.8 7.17-3.16c3.11-1.52 6.75-4.04 6.75-4.04l-3.39-13.96s-3.55 2.26-6.8 4.11c-2.66 1.51-6.15 3.33-6.55 3.22s-2.69-10.79-2.6-11.07c.04-.13 3.14-1.54 7.44-4.37 2.28-1.5 5.52-4.34 5.52-4.34s-1.79-9.93-2.11-11.05-1.41-1.76-2.52-.67-4.25 3.93-5.69 5.17-5.2 3.77-5.2 3.77S97.79 23.78 97.69 24c-.08.15-1.87 1.1-7.49 2.41-4.59 1.07-7.6 1.11-7.6 1.11s-.64-3.09-1.04-5.2c-.44-2.28-1.07-5.01-1.07-5.01s-3.65.26-9.02-.4c-4.2-.51-8.12-1.95-8.12-1.95s.81 2.22 1.12 4.69c.23 1.86.98 5.67.98 5.67s-3.87-1.51-8.28-2.66c-4.41-1.15-8.69-1.44-8.69-1.44s-.45-4.15-.77-7.41-.37-4.82-.37-4.82-4.8-1.8-9.4-2.02c-5.26-.25-9.7 1.26-9.7 1.26z" fill="#434343"/><path d="M30.29 22.28c-.07.28 1.1 12.24 1.25 12.35.15.11 4.56-.87 8.85-1.25s9.97.01 9.97.01l-1.91-11.94s-5.48-.96-9.54-.8c-4.06.15-8.58 1.48-8.62 1.63zM33.76 48.5l2.15 13.3s3.99-1.56 9.12-2.2 9.75-.26 9.75-.26l-2.36-12.75s-5.24-.67-9.83-.28c-5.42.44-8.83 2.19-8.83 2.19zM50.67 33.94l1.96 12.16s5.36.57 8.29 1.14c2.93.57 8.23 1.71 8.35 1.6.11-.11-1.34-11.29-1.76-11.67-.42-.38-4.68-1.25-7.98-1.94-3.32-.68-8.83-1.67-8.86-1.29zM65.89 25.63c-.12.06 1.37 10.75 1.86 11.25.49.49 5.35 1.37 8.1 1.74 4.02.53 8.9.55 9.09.44.19-.11-2.4-11.11-2.44-11.18-.16-.25-2.66.15-7.9-.42-5.32-.59-8.56-1.91-8.71-1.83zM85.31 39.34c-.14.14 2.12 12.44 2.25 12.61.31.41 4.56-.15 7.67-.72 4.55-.83 8.01-2.13 8.01-2.13s-2.56-12.76-2.68-12.87c-.11-.11-3.41 1.47-7.88 2.27-4.64.84-7.18.65-7.37.84zM69.78 49.32c-.04.23 2.39 12.58 2.46 13.06.04.25 3.92 1.13 7.83 1.7 4.45.65 9.82.79 9.82.79s-1.18-5.38-1.61-7.86c-.45-2.56-.94-4.79-.94-4.79s-4.57-.38-8.98-1.06-8.58-1.84-8.58-1.84z" fill="#f1edec"/></svg><view id="emoji_u1f3f4" viewBox="0 128 128 128"/><svg viewBox="0 0 128 128" width="128" height="128" y="128" xmlns="http://www.w3.org/2000/svg"><path d="M17.99 18.27c-.18-1.27-.39-6.82-5.23-6.33-4.04.41-3.82 4.76-3.43 6.79.22 1.15 13 102.42 13.17 103.52.23 1.47 2.28 3 4.62 2.76 2.34-.23 3.71-2.05 3.66-3.78C30.74 119.91 18.23 20 17.99 18.27z" fill="#b0b0b0"/><path d="M25.84 118.75c-.62 0-1.16-.46-1.24-1.09L11.5 16.54a1.25 1.25 0 012.48-.32l13.1 101.12c.09.68-.39 1.31-1.08 1.4-.05.01-.1.01-.16.01z" fill="#c8c8c8"/><path d="M18.08 19.17l8.1 65.02s2.69-3.5 10.2-3.35c5.22.11 13.2 1.22 23.61-2.27 13.82-4.63 21.48-12.51 36.58-15.15 11.39-1.99 21.78.14 22.04-.49.21-.49-.32-3.87-.37-3.86-1 .16-32.31-18.43-32.31-18.43L21.39 17.26s-.65.44-1.85 1.04c-.92.45-1.46.87-1.46.87z" fill="#2f2f2f"/><path d="M21.36 17.23s2.56-2.03 8.82-2.46c10.97-.76 15.94 2.46 25.84.29 10.91-2.4 18.23-9.99 29.66-11.47 13.03-1.69 21.33 2.35 21.33 2.35s3.77 12.03 6.2 25.53c2.25 12.53 5.03 27.61 5.03 27.61l-3.45-.51-92.8-36.38-.63-4.96z" fill="#434343"/><path d="M104.53 8.47c-1.11-.87-12.38-4.09-22.66-1.24S66.64 16.14 56.61 18.5s-17.83-.8-23.4-.35c-9.29.74-11.31 3.46-11.31 3.46l6.73 55.82s3.25-.96 8.05-.89c7.22.1 12.45.65 21-1.82s20.66-10.45 32.26-14.04c14.11-4.37 25.59-1.61 25.48-2.06-.11-.46-2.97-15.48-5.7-29.71-2.71-14.25-5.19-20.44-5.19-20.44z" fill="#434343"/><path d="M67.4 19.85c-.4 2.42 1.36 21.45-.89 30.04s-6.93 15.13-9.96 18.06-4.59 4.59-4.1 5.17 7.71-2.05 15.32-6.54 10.74-7.03 11.52-8.2 3.22-9.56 4.29-18.54 2.06-21.06 2.54-24.3c.39-2.64 1.37-5.37.78-5.56-.59-.2-6.1.46-10.64 2.73-4.67 2.34-8.52 5.05-8.86 7.14zM26.69 23.25c-.29 1.75 1.27 17.76 2.15 25.96.88 8.2 2.85 22.63 4.32 22.48 2.7-.27 4.46-25.95 9.64-36.34 3.93-7.89 7.81-11.22 7.71-11.91s-13.29-3.87-18.25-2.93c-5.67 1.08-5.57 2.74-5.57 2.74z" fill="#787878"/></svg><view id="emoji_u1f6a9" viewBox="128 128 128 128"/><svg viewBox="0 0 128 128" width="128" height="128" x="128" y="128" xmlns="http://www.w3.org/2000/svg"><path d="M8.04 3.32c-2.73.73-3.69 3.34-3.33 6.14.35 2.81 13.69 110.04 14.04 112.15.35 2.11 2.46 2.98 4.91 2.81 2.46-.18 4.39-2.11 4.21-4.21C27.7 118.1 13.66 8.41 13.3 6.83s-2.63-4.21-5.26-3.51z" fill="#b0b0b0"/><path d="M22.43 117.14c-.74 0-1.39-.55-1.49-1.31L7.12 8.39c-.1-.82.48-1.57 1.3-1.68.82-.1 1.57.47 1.68 1.3l13.82 107.44c.11.82-.47 1.57-1.3 1.68-.06.01-.13.01-.19.01z" fill="#c8c8c8"/><path d="M20.98 73.61s.21 2.14.85 3.33c.46.87 1.9.31 3.06-.73 1.22-1.1 7.22-5.26 16.64-7.47 11.57-2.7 26.2-7.27 35.25-13.22 12.85-8.44 16.09-15.01 21.91-22.27 5.87-7.34 9.55-10.77 15.18-13.83 5.68-3.09 7.96-3.55 8.69-3.55.73 0 1.84-1.96.12-2.81-1.71-.86-14.32-1.71-14.32-1.71L24.28 59.08l-3.3 14.53z" fill="#cc1935"/><path d="M12.65 7.92l8.32 65.72s4.31-5.05 13.58-8.32c10.77-3.79 25.33-6 32.68-9.79S84.49 43.9 91.1 36.19c6.61-7.71 11.16-14.41 18.11-19.34 5.87-4.16 13.46-3.79 13.46-3.79s-5.75-4.41-16.28-3.3c-12.17 1.27-27.76 10.76-33.9 9.67C60.75 17.34 59.04 9.14 47.41 6.57 29.08 2.52 12.65 7.92 12.65 7.92z" fill="#fe2c23"/><path d="M25.5 53.08c1.58-.18 3.18-9.79 7.47-17.13s11.01-13.46 13.58-15.18c2.57-1.71 5.63-3.92 1.59-6.12s-11.26-3.92-18.48-3.92c-7 0-8.81.73-9.18 1.59-.37.86 1.71 23.01 2.45 28.15.74 5.15 1.47 12.73 2.57 12.61zM59.89 52.47c.13.77 11.99-4.41 17.87-11.14 4.79-5.48 6.73-11.87 11.14-16.4 4.41-4.53 8.93-9.06 8.93-9.06s-12.97 1.59-20.19 10.16c-7.22 8.57-9.67 14.07-11.26 16.64-1.59 2.58-6.61 9.06-6.49 9.8z" fill="#ff5f5f"/></svg></svg>